<svg width="23" height="23" viewBox="0 0 23 23" fill="none" xmlns="http://www.w3.org/2000/svg">
<path d="M0 14.0556V11.5C1.57593 11.5 3.06156 11.1963 4.45689 10.5889C5.85137 9.98243 7.07037 9.15741 8.11389 8.11389C9.15741 7.07037 9.98285 5.85094 10.5902 4.45561C11.1967 3.06113 11.5 1.57593 11.5 0H14.0556C14.0556 1.93796 13.688 3.7588 12.9528 5.4625C12.2185 7.1662 11.2125 8.65694 9.93472 9.93472C8.65694 11.2125 7.1662 12.2185 5.4625 12.9528C3.7588 13.688 1.93796 14.0556 0 14.0556ZM0 8.94444V6.38889C1.76759 6.38889 3.27409 5.76576 4.5195 4.5195C5.76576 3.27409 6.38889 1.76759 6.38889 0H8.94444C8.94444 2.47037 8.0713 4.5787 6.325 6.325C4.5787 8.0713 2.47037 8.94444 0 8.94444ZM0 3.83333V0H3.83333C3.83333 1.06481 3.46065 1.96991 2.71528 2.71528C1.96991 3.46065 1.06481 3.83333 0 3.83333ZM8.94444 23C8.94444 21.062 9.31202 19.2412 10.0472 17.5375C10.7815 15.8338 11.7875 14.3431 13.0653 13.0653C14.3431 11.7875 15.8338 10.7815 17.5375 10.0472C19.2412 9.31202 21.062 8.94444 23 8.94444V11.5C21.4241 11.5 19.9389 11.8033 18.5444 12.4098C17.1491 13.0171 15.9296 13.8426 14.8861 14.8861C13.8426 15.9296 13.0176 17.1486 12.4111 18.5431C11.8037 19.9384 11.5 21.4241 11.5 23H8.94444ZM14.0556 23C14.0556 20.5296 14.9287 18.4213 16.675 16.675C18.4213 14.9287 20.5296 14.0556 23 14.0556V16.6111C21.2324 16.6111 19.7255 17.2338 18.4792 18.4792C17.2338 19.7255 16.6111 21.2324 16.6111 23H14.0556ZM19.1667 23C19.1667 21.9352 19.5394 21.0301 20.2847 20.2847C21.0301 19.5394 21.9352 19.1667 23 19.1667V23H19.1667Z" fill="#1C1B1F"/>
</svg>
