<svg width="24" height="24" viewBox="0 0 24 24" fill="none" xmlns="http://www.w3.org/2000/svg">
<path d="M10.6299 17.7165H12.9921V10.6299H10.6299V17.7165ZM11.811 8.26772C12.1457 8.26772 12.4264 8.15433 12.6532 7.92756C12.8791 7.70157 12.9921 7.42126 12.9921 7.08661C12.9921 6.75197 12.8791 6.47126 12.6532 6.24449C12.4264 6.0185 12.1457 5.90551 11.811 5.90551C11.4764 5.90551 11.1961 6.0185 10.9701 6.24449C10.7433 6.47126 10.6299 6.75197 10.6299 7.08661C10.6299 7.42126 10.7433 7.70157 10.9701 7.92756C11.1961 8.15433 11.4764 8.26772 11.811 8.26772ZM11.811 23.622C10.1772 23.622 8.64173 23.3118 7.20473 22.6913C5.76772 22.0717 4.51772 21.2303 3.45472 20.1673C2.39173 19.1043 1.55039 17.8543 0.930709 16.4173C0.310236 14.9803 0 13.4449 0 11.811C0 10.1772 0.310236 8.64173 0.930709 7.20473C1.55039 5.76772 2.39173 4.51772 3.45472 3.45472C4.51772 2.39173 5.76772 1.55 7.20473 0.929528C8.64173 0.309842 10.1772 0 11.811 0C13.4449 0 14.9803 0.309842 16.4173 0.929528C17.8543 1.55 19.1043 2.39173 20.1673 3.45472C21.2303 4.51772 22.0717 5.76772 22.6913 7.20473C23.3118 8.64173 23.622 10.1772 23.622 11.811C23.622 13.4449 23.3118 14.9803 22.6913 16.4173C22.0717 17.8543 21.2303 19.1043 20.1673 20.1673C19.1043 21.2303 17.8543 22.0717 16.4173 22.6913C14.9803 23.3118 13.4449 23.622 11.811 23.622ZM11.811 21.2598C14.4488 21.2598 16.6831 20.3445 18.5138 18.5138C20.3445 16.6831 21.2598 14.4488 21.2598 11.811C21.2598 9.17323 20.3445 6.93898 18.5138 5.10827C16.6831 3.27756 14.4488 2.3622 11.811 2.3622C9.17323 2.3622 6.93898 3.27756 5.10827 5.10827C3.27756 6.93898 2.3622 9.17323 2.3622 11.811C2.3622 14.4488 3.27756 16.6831 5.10827 18.5138C6.93898 20.3445 9.17323 21.2598 11.811 21.2598Z" fill="#1C1B1F"/>
</svg>
