<svg width="24" height="22" viewBox="0 0 24 22" fill="none" xmlns="http://www.w3.org/2000/svg">
<path d="M11.9048 21.4286C11.039 20.7326 10.101 20.1923 9.09091 19.8077C8.08081 19.4231 7.03463 19.2308 5.95238 19.2308C5.19481 19.2308 4.45094 19.3315 3.72078 19.533C2.9899 19.7344 2.29076 20.0183 1.62338 20.3846C1.24459 20.5861 0.879509 20.5769 0.528139 20.3571C0.176046 20.1374 0 19.8168 0 19.3956V6.15385C0 5.95238 0.0497836 5.76007 0.149351 5.57692C0.248196 5.39377 0.396825 5.25641 0.595238 5.16483C1.42496 4.72527 2.29076 4.3956 3.19264 4.17582C4.09452 3.95604 5.01443 3.84615 5.95238 3.84615C6.99856 3.84615 8.02237 3.98352 9.02381 4.25824C10.0245 4.53297 10.9848 4.94505 11.9048 5.4945V18.7912C12.8247 18.2051 13.7897 17.7656 14.7998 17.4725C15.8099 17.1795 16.829 17.033 17.8571 17.033C18.5065 17.033 19.1425 17.0879 19.7652 17.1978C20.3871 17.3077 21.0137 17.4725 21.645 17.6923V4.50549C21.9156 4.59707 22.1818 4.69304 22.4437 4.79341C22.7049 4.89451 22.9618 5.01831 23.2143 5.16483C23.4127 5.25641 23.5617 5.39377 23.6613 5.57692C23.7601 5.76007 23.8095 5.95238 23.8095 6.15385V19.3956C23.8095 19.8168 23.6338 20.1374 23.2825 20.3571C22.9304 20.5769 22.5649 20.5861 22.1861 20.3846C21.5188 20.0183 20.8196 19.7344 20.0887 19.533C19.3586 19.3315 18.6147 19.2308 17.8571 19.2308C16.7749 19.2308 15.7287 19.4231 14.7186 19.8077C13.7085 20.1923 12.7706 20.7326 11.9048 21.4286ZM14.0693 15.9341V5.4945L19.4805 0V10.989L14.0693 15.9341ZM9.74026 17.7198V6.84066C9.14502 6.58425 8.52742 6.38755 7.88745 6.25055C7.24675 6.11282 6.60173 6.04396 5.95238 6.04396C5.28499 6.04396 4.63564 6.10806 4.00433 6.23626C3.37302 6.36447 2.75974 6.55678 2.1645 6.81319V17.7198C2.79582 17.4817 3.4228 17.3077 4.04545 17.1978C4.66739 17.0879 5.30303 17.033 5.95238 17.033C6.60173 17.033 7.23737 17.0879 7.85931 17.1978C8.48196 17.3077 9.10895 17.4817 9.74026 17.7198Z" fill="#1C1B1F"/>
</svg>
