<svg width="27" height="24" viewBox="0 0 27 24" fill="none" xmlns="http://www.w3.org/2000/svg">
<path d="M2.7 24C1.9575 24 1.3221 23.7391 0.7938 23.2173C0.2646 22.6947 0 22.0667 0 21.3333V12H2.7V21.3333H14.85V24H2.7ZM8.1 18.6667C7.3575 18.6667 6.7221 18.4058 6.1938 17.884C5.6646 17.3613 5.4 16.7333 5.4 16V6.66667H8.1V16H20.25V18.6667H8.1ZM13.5 13.3333C12.7575 13.3333 12.1221 13.072 11.5938 12.5493C11.0646 12.0276 10.8 11.4 10.8 10.6667V2.66667C10.8 1.93333 11.0646 1.30533 11.5938 0.782667C12.1221 0.260889 12.7575 0 13.5 0H24.3C25.0425 0 25.6784 0.260889 26.2076 0.782667C26.7359 1.30533 27 1.93333 27 2.66667V10.6667C27 11.4 26.7359 12.0276 26.2076 12.5493C25.6784 13.072 25.0425 13.3333 24.3 13.3333H13.5ZM13.5 10.6667H24.3V5.33333H13.5V10.6667Z" fill="#1C1B1F"/>
</svg>
