<svg width="208" height="71" viewBox="0 0 208 71" fill="none" xmlns="http://www.w3.org/2000/svg">
<g filter="url(#filter0_i_234_583)">
<rect x="3" y="21" width="107" height="50" rx="6" fill="#F9F9F9"/>
</g>
<rect x="3.25" y="21.25" width="106.5" height="49.5" rx="5.75" stroke="#929292" stroke-width="0.5"/>
<path d="M57.85 38.75H55.15V44.15H49.75V46.85H55.15V52.25H57.85V46.85H63.25V44.15H57.85V38.75ZM56.5 32C49.048 32 43 38.048 43 45.5C43 52.952 49.048 59 56.5 59C63.952 59 70 52.952 70 45.5C70 38.048 63.952 32 56.5 32ZM56.5 56.3C50.5465 56.3 45.7 51.4535 45.7 45.5C45.7 39.5465 50.5465 34.7 56.5 34.7C62.4535 34.7 67.3 39.5465 67.3 45.5C67.3 51.4535 62.4535 56.3 56.5 56.3Z" fill="#737373"/>
<g filter="url(#filter1_d_234_583)">
<path d="M4.00781 9.46875L5.57812 7.3125L3.21875 6.60938L3.58594 5.4375L5.94531 6.30469L5.875 3.61719H7.0625L6.98438 6.35156L9.3125 5.48438L9.67188 6.67969L7.27344 7.39062L8.8125 9.50781L7.84375 10.2344L6.39844 7.98438L4.98438 10.1797L4.00781 9.46875Z" fill="#F53030"/>
<path d="M19.2344 9.67969H16.3516L16.3359 8.46875H18.9531C19.3854 8.46875 19.763 8.39583 20.0859 8.25C20.4089 8.10417 20.6589 7.89583 20.8359 7.625C21.0182 7.34896 21.1094 7.02083 21.1094 6.64062C21.1094 6.22396 21.0286 5.88542 20.8672 5.625C20.7109 5.35938 20.4688 5.16667 20.1406 5.04688C19.8177 4.92188 19.4062 4.85938 18.9062 4.85938H16.6875V15H15.1797V3.625H18.9062C19.4896 3.625 20.0104 3.6849 20.4688 3.80469C20.9271 3.91927 21.3151 4.10156 21.6328 4.35156C21.9557 4.59635 22.2005 4.90885 22.3672 5.28906C22.5339 5.66927 22.6172 6.125 22.6172 6.65625C22.6172 7.125 22.4974 7.54948 22.2578 7.92969C22.0182 8.30469 21.6849 8.61198 21.2578 8.85156C20.8359 9.09115 20.3411 9.24479 19.7734 9.3125L19.2344 9.67969ZM19.1641 15H15.7578L16.6094 13.7734H19.1641C19.6432 13.7734 20.0495 13.6901 20.3828 13.5234C20.7214 13.3568 20.9792 13.1224 21.1562 12.8203C21.3333 12.513 21.4219 12.151 21.4219 11.7344C21.4219 11.3125 21.3464 10.9479 21.1953 10.6406C21.0443 10.3333 20.8073 10.0964 20.4844 9.92969C20.1615 9.76302 19.7448 9.67969 19.2344 9.67969H17.0859L17.1016 8.46875H20.0391L20.3594 8.90625C20.9062 8.95312 21.3698 9.10938 21.75 9.375C22.1302 9.63542 22.4193 9.96875 22.6172 10.375C22.8203 10.7812 22.9219 11.2292 22.9219 11.7188C22.9219 12.4271 22.7656 13.026 22.4531 13.5156C22.1458 14 21.7109 14.3698 21.1484 14.625C20.5859 14.875 19.9245 15 19.1641 15ZM26.1172 9.45312H28.6562C29.3385 9.45312 29.9141 9.57292 30.3828 9.8125C30.8516 10.0469 31.2057 10.3724 31.4453 10.7891C31.6901 11.2005 31.8125 11.6693 31.8125 12.1953C31.8125 12.5859 31.7448 12.9531 31.6094 13.2969C31.474 13.6354 31.2708 13.9323 31 14.1875C30.7344 14.4427 30.4036 14.6432 30.0078 14.7891C29.6172 14.9297 29.1667 15 28.6562 15H25.0625V6.54688H26.5078V13.8125H28.6562C29.0729 13.8125 29.4062 13.737 29.6562 13.5859C29.9062 13.4349 30.0859 13.2396 30.1953 13C30.3047 12.7604 30.3594 12.5104 30.3594 12.25C30.3594 11.9948 30.3047 11.7448 30.1953 11.5C30.0859 11.2552 29.9062 11.0521 29.6562 10.8906C29.4062 10.724 29.0729 10.6406 28.6562 10.6406H26.1172V9.45312ZM34.8203 6.54688V15H33.375V6.54688H34.8203ZM42.7734 2.86719H43.9609C43.9609 3.3776 43.8828 3.78385 43.7266 4.08594C43.5703 4.38281 43.3568 4.61198 43.0859 4.77344C42.8203 4.9349 42.5182 5.05729 42.1797 5.14062C41.8464 5.22396 41.5 5.30469 41.1406 5.38281C40.6927 5.47656 40.276 5.625 39.8906 5.82812C39.5104 6.02604 39.1823 6.30729 38.9062 6.67188C38.6354 7.03646 38.4349 7.51042 38.3047 8.09375C38.1797 8.67708 38.1458 9.39844 38.2031 10.2578V10.9766H37.0156V10.2578C37.0156 9.29427 37.1068 8.45312 37.2891 7.73438C37.4766 7.01562 37.7396 6.40885 38.0781 5.91406C38.4167 5.41927 38.8177 5.02604 39.2812 4.73438C39.75 4.44271 40.2656 4.24219 40.8281 4.13281C41.2344 4.05469 41.5833 3.97135 41.875 3.88281C42.1667 3.78906 42.388 3.66406 42.5391 3.50781C42.6953 3.35156 42.7734 3.13802 42.7734 2.86719ZM41.0625 7.03125C41.6146 7.03125 42.1068 7.1276 42.5391 7.32031C42.9714 7.51302 43.3385 7.78125 43.6406 8.125C43.9427 8.46875 44.1719 8.875 44.3281 9.34375C44.4896 9.80729 44.5703 10.3125 44.5703 10.8594V11.0312C44.5703 11.6198 44.4844 12.1667 44.3125 12.6719C44.1458 13.1719 43.8984 13.6094 43.5703 13.9844C43.2474 14.3542 42.8516 14.6432 42.3828 14.8516C41.9193 15.0599 41.3906 15.1641 40.7969 15.1641C40.2031 15.1641 39.6719 15.0599 39.2031 14.8516C38.7396 14.6432 38.3438 14.3542 38.0156 13.9844C37.6875 13.6094 37.4375 13.1719 37.2656 12.6719C37.099 12.1667 37.0156 11.6198 37.0156 11.0312V10.8594C37.0156 10.7292 37.0391 10.6016 37.0859 10.4766C37.1328 10.3516 37.1901 10.224 37.2578 10.0938C37.3307 9.96354 37.3958 9.82552 37.4531 9.67969C37.6458 9.21094 37.9089 8.77604 38.2422 8.375C38.5807 7.97396 38.9844 7.65104 39.4531 7.40625C39.9271 7.15625 40.4635 7.03125 41.0625 7.03125ZM40.7812 8.21094C40.25 8.21094 39.8125 8.33333 39.4688 8.57812C39.1302 8.82292 38.8776 9.14844 38.7109 9.55469C38.5443 9.95573 38.4609 10.3906 38.4609 10.8594V11.0312C38.4609 11.4271 38.5078 11.8021 38.6016 12.1562C38.6953 12.5104 38.8359 12.8255 39.0234 13.1016C39.2161 13.3724 39.4583 13.5859 39.75 13.7422C40.0469 13.8984 40.3958 13.9766 40.7969 13.9766C41.1979 13.9766 41.5443 13.8984 41.8359 13.7422C42.1276 13.5859 42.3672 13.3724 42.5547 13.1016C42.7422 12.8255 42.8828 12.5104 42.9766 12.1562C43.0703 11.8021 43.1172 11.4271 43.1172 11.0312V10.8594C43.1172 10.5052 43.0703 10.1693 42.9766 9.85156C42.8828 9.53385 42.7396 9.2526 42.5469 9.00781C42.3594 8.76302 42.1172 8.57031 41.8203 8.42969C41.5286 8.28385 41.1823 8.21094 40.7812 8.21094ZM47.5156 8.17188V18.25H46.0625V6.54688H47.3906L47.5156 8.17188ZM53.2109 10.7031V10.8672C53.2109 11.4818 53.138 12.0521 52.9922 12.5781C52.8464 13.099 52.6328 13.5521 52.3516 13.9375C52.0755 14.3229 51.7344 14.6224 51.3281 14.8359C50.9219 15.0495 50.4557 15.1562 49.9297 15.1562C49.3932 15.1562 48.9193 15.0677 48.5078 14.8906C48.0964 14.7135 47.7474 14.4557 47.4609 14.1172C47.1745 13.7786 46.9453 13.3724 46.7734 12.8984C46.6068 12.4245 46.4922 11.8906 46.4297 11.2969V10.4219C46.4922 9.79688 46.6094 9.23698 46.7812 8.74219C46.9531 8.2474 47.1797 7.82552 47.4609 7.47656C47.7474 7.1224 48.0938 6.85417 48.5 6.67188C48.9062 6.48438 49.375 6.39062 49.9062 6.39062C50.4375 6.39062 50.9089 6.49479 51.3203 6.70312C51.7318 6.90625 52.0781 7.19792 52.3594 7.57812C52.6406 7.95833 52.8516 8.41406 52.9922 8.94531C53.138 9.47135 53.2109 10.0573 53.2109 10.7031ZM51.7578 10.8672V10.7031C51.7578 10.2812 51.7135 9.88542 51.625 9.51562C51.5365 9.14062 51.3984 8.8125 51.2109 8.53125C51.0286 8.24479 50.7943 8.02083 50.5078 7.85938C50.2214 7.69271 49.8802 7.60938 49.4844 7.60938C49.1198 7.60938 48.8021 7.67188 48.5312 7.79688C48.2656 7.92188 48.0391 8.09115 47.8516 8.30469C47.6641 8.51302 47.5104 8.7526 47.3906 9.02344C47.276 9.28906 47.1901 9.5651 47.1328 9.85156V11.875C47.237 12.2396 47.3828 12.5833 47.5703 12.9062C47.7578 13.224 48.0078 13.4818 48.3203 13.6797C48.6328 13.8724 49.026 13.9688 49.5 13.9688C49.8906 13.9688 50.2266 13.888 50.5078 13.7266C50.7943 13.5599 51.0286 13.3333 51.2109 13.0469C51.3984 12.7604 51.5365 12.4323 51.625 12.0625C51.7135 11.6875 51.7578 11.2891 51.7578 10.8672ZM60.0391 13.5547V9.20312C60.0391 8.86979 59.9714 8.58073 59.8359 8.33594C59.7057 8.08594 59.5078 7.89323 59.2422 7.75781C58.9766 7.6224 58.6484 7.55469 58.2578 7.55469C57.8932 7.55469 57.5729 7.61719 57.2969 7.74219C57.026 7.86719 56.8125 8.03125 56.6562 8.23438C56.5052 8.4375 56.4297 8.65625 56.4297 8.89062H54.9844C54.9844 8.58854 55.0625 8.28906 55.2188 7.99219C55.375 7.69531 55.599 7.42708 55.8906 7.1875C56.1875 6.94271 56.5417 6.75 56.9531 6.60938C57.3698 6.46354 57.8333 6.39062 58.3438 6.39062C58.9583 6.39062 59.5 6.49479 59.9688 6.70312C60.4427 6.91146 60.8125 7.22656 61.0781 7.64844C61.349 8.0651 61.4844 8.58854 61.4844 9.21875V13.1562C61.4844 13.4375 61.5078 13.737 61.5547 14.0547C61.6068 14.3724 61.6823 14.6458 61.7812 14.875V15H60.2734C60.2005 14.8333 60.1432 14.612 60.1016 14.3359C60.0599 14.0547 60.0391 13.7943 60.0391 13.5547ZM60.2891 9.875L60.3047 10.8906H58.8438C58.4323 10.8906 58.0651 10.9245 57.7422 10.9922C57.4193 11.0547 57.1484 11.151 56.9297 11.2812C56.7109 11.4115 56.5443 11.5755 56.4297 11.7734C56.3151 11.9661 56.2578 12.1927 56.2578 12.4531C56.2578 12.7188 56.3177 12.9609 56.4375 13.1797C56.5573 13.3984 56.737 13.5729 56.9766 13.7031C57.2214 13.8281 57.5208 13.8906 57.875 13.8906C58.3177 13.8906 58.7083 13.7969 59.0469 13.6094C59.3854 13.4219 59.6536 13.1927 59.8516 12.9219C60.0547 12.651 60.1641 12.388 60.1797 12.1328L60.7969 12.8281C60.7604 13.0469 60.6615 13.2891 60.5 13.5547C60.3385 13.8203 60.1224 14.0755 59.8516 14.3203C59.5859 14.5599 59.2682 14.7604 58.8984 14.9219C58.5339 15.0781 58.1224 15.1562 57.6641 15.1562C57.0911 15.1562 56.5885 15.0443 56.1562 14.8203C55.7292 14.5964 55.3958 14.2969 55.1562 13.9219C54.9219 13.5417 54.8047 13.1172 54.8047 12.6484C54.8047 12.1953 54.8932 11.7969 55.0703 11.4531C55.2474 11.1042 55.5026 10.8151 55.8359 10.5859C56.1693 10.3516 56.5703 10.1745 57.0391 10.0547C57.5078 9.9349 58.0312 9.875 58.6094 9.875H60.2891ZM67.0781 6.54688V15H65.625V6.54688H67.0781ZM69.9141 6.54688V7.71875H62.8438V6.54688H69.9141ZM72.5234 9.45312H75.0625C75.7448 9.45312 76.3203 9.57292 76.7891 9.8125C77.2578 10.0469 77.612 10.3724 77.8516 10.7891C78.0964 11.2005 78.2188 11.6693 78.2188 12.1953C78.2188 12.5859 78.151 12.9531 78.0156 13.2969C77.8802 13.6354 77.6771 13.9323 77.4062 14.1875C77.1406 14.4427 76.8099 14.6432 76.4141 14.7891C76.0234 14.9297 75.5729 15 75.0625 15H71.4688V6.54688H72.9141V13.8125H75.0625C75.4792 13.8125 75.8125 13.737 76.0625 13.5859C76.3125 13.4349 76.4922 13.2396 76.6016 13C76.7109 12.7604 76.7656 12.5104 76.7656 12.25C76.7656 11.9948 76.7109 11.7448 76.6016 11.5C76.4922 11.2552 76.3125 11.0521 76.0625 10.8906C75.8125 10.724 75.4792 10.6406 75.0625 10.6406H72.5234V9.45312ZM83.6094 10.8672V10.6875C83.6094 10.0781 83.6979 9.51302 83.875 8.99219C84.0521 8.46615 84.3073 8.01042 84.6406 7.625C84.974 7.23438 85.3776 6.93229 85.8516 6.71875C86.3255 6.5 86.8568 6.39062 87.4453 6.39062C88.0391 6.39062 88.5729 6.5 89.0469 6.71875C89.526 6.93229 89.9323 7.23438 90.2656 7.625C90.6042 8.01042 90.862 8.46615 91.0391 8.99219C91.2161 9.51302 91.3047 10.0781 91.3047 10.6875V10.8672C91.3047 11.4766 91.2161 12.0417 91.0391 12.5625C90.862 13.0833 90.6042 13.5391 90.2656 13.9297C89.9323 14.3151 89.5286 14.6172 89.0547 14.8359C88.5859 15.0495 88.0547 15.1562 87.4609 15.1562C86.8672 15.1562 86.3333 15.0495 85.8594 14.8359C85.3854 14.6172 84.9792 14.3151 84.6406 13.9297C84.3073 13.5391 84.0521 13.0833 83.875 12.5625C83.6979 12.0417 83.6094 11.4766 83.6094 10.8672ZM85.0547 10.6875V10.8672C85.0547 11.2891 85.1042 11.6875 85.2031 12.0625C85.3021 12.4323 85.4505 12.7604 85.6484 13.0469C85.8516 13.3333 86.1042 13.5599 86.4062 13.7266C86.7083 13.888 87.0599 13.9688 87.4609 13.9688C87.8568 13.9688 88.2031 13.888 88.5 13.7266C88.8021 13.5599 89.0521 13.3333 89.25 13.0469C89.4479 12.7604 89.5964 12.4323 89.6953 12.0625C89.7995 11.6875 89.8516 11.2891 89.8516 10.8672V10.6875C89.8516 10.2708 89.7995 9.8776 89.6953 9.50781C89.5964 9.13281 89.4453 8.80208 89.2422 8.51562C89.0443 8.22396 88.7943 7.99479 88.4922 7.82812C88.1953 7.66146 87.8464 7.57812 87.4453 7.57812C87.0495 7.57812 86.7005 7.66146 86.3984 7.82812C86.1016 7.99479 85.8516 8.22396 85.6484 8.51562C85.4505 8.80208 85.3021 9.13281 85.2031 9.50781C85.1042 9.8776 85.0547 10.2708 85.0547 10.6875ZM98.5391 2.86719H99.7266C99.7266 3.3776 99.6484 3.78385 99.4922 4.08594C99.3359 4.38281 99.1224 4.61198 98.8516 4.77344C98.5859 4.9349 98.2839 5.05729 97.9453 5.14062C97.612 5.22396 97.2656 5.30469 96.9062 5.38281C96.4583 5.47656 96.0417 5.625 95.6562 5.82812C95.276 6.02604 94.9479 6.30729 94.6719 6.67188C94.401 7.03646 94.2005 7.51042 94.0703 8.09375C93.9453 8.67708 93.9115 9.39844 93.9688 10.2578V10.9766H92.7812V10.2578C92.7812 9.29427 92.8724 8.45312 93.0547 7.73438C93.2422 7.01562 93.5052 6.40885 93.8438 5.91406C94.1823 5.41927 94.5833 5.02604 95.0469 4.73438C95.5156 4.44271 96.0312 4.24219 96.5938 4.13281C97 4.05469 97.349 3.97135 97.6406 3.88281C97.9323 3.78906 98.1536 3.66406 98.3047 3.50781C98.4609 3.35156 98.5391 3.13802 98.5391 2.86719ZM96.8281 7.03125C97.3802 7.03125 97.8724 7.1276 98.3047 7.32031C98.737 7.51302 99.1042 7.78125 99.4062 8.125C99.7083 8.46875 99.9375 8.875 100.094 9.34375C100.255 9.80729 100.336 10.3125 100.336 10.8594V11.0312C100.336 11.6198 100.25 12.1667 100.078 12.6719C99.9115 13.1719 99.6641 13.6094 99.3359 13.9844C99.013 14.3542 98.6172 14.6432 98.1484 14.8516C97.6849 15.0599 97.1562 15.1641 96.5625 15.1641C95.9688 15.1641 95.4375 15.0599 94.9688 14.8516C94.5052 14.6432 94.1094 14.3542 93.7812 13.9844C93.4531 13.6094 93.2031 13.1719 93.0312 12.6719C92.8646 12.1667 92.7812 11.6198 92.7812 11.0312V10.8594C92.7812 10.7292 92.8047 10.6016 92.8516 10.4766C92.8984 10.3516 92.9557 10.224 93.0234 10.0938C93.0964 9.96354 93.1615 9.82552 93.2188 9.67969C93.4115 9.21094 93.6745 8.77604 94.0078 8.375C94.3464 7.97396 94.75 7.65104 95.2188 7.40625C95.6927 7.15625 96.2292 7.03125 96.8281 7.03125ZM96.5469 8.21094C96.0156 8.21094 95.5781 8.33333 95.2344 8.57812C94.8958 8.82292 94.6432 9.14844 94.4766 9.55469C94.3099 9.95573 94.2266 10.3906 94.2266 10.8594V11.0312C94.2266 11.4271 94.2734 11.8021 94.3672 12.1562C94.4609 12.5104 94.6016 12.8255 94.7891 13.1016C94.9818 13.3724 95.224 13.5859 95.5156 13.7422C95.8125 13.8984 96.1615 13.9766 96.5625 13.9766C96.9635 13.9766 97.3099 13.8984 97.6016 13.7422C97.8932 13.5859 98.1328 13.3724 98.3203 13.1016C98.5078 12.8255 98.6484 12.5104 98.7422 12.1562C98.8359 11.8021 98.8828 11.4271 98.8828 11.0312V10.8594C98.8828 10.5052 98.8359 10.1693 98.7422 9.85156C98.6484 9.53385 98.5052 9.2526 98.3125 9.00781C98.125 8.76302 97.8828 8.57031 97.5859 8.42969C97.2943 8.28385 96.9479 8.21094 96.5469 8.21094ZM107.625 6.54688V7.74219H103.539V6.54688H107.625ZM108.898 6.54688V15H107.453V6.54688H108.898ZM103.188 6.54688H104.641L104.422 10.625C104.385 11.2552 104.326 11.8125 104.242 12.2969C104.164 12.776 104.055 13.1875 103.914 13.5312C103.779 13.875 103.607 14.1562 103.398 14.375C103.195 14.5885 102.951 14.7474 102.664 14.8516C102.378 14.9505 102.047 15 101.672 15H101.219V13.7266L101.531 13.7031C101.755 13.6875 101.945 13.6354 102.102 13.5469C102.263 13.4583 102.398 13.3281 102.508 13.1562C102.617 12.9792 102.706 12.7526 102.773 12.4766C102.846 12.2005 102.901 11.8724 102.938 11.4922C102.979 11.112 103.01 10.6693 103.031 10.1641L103.188 6.54688ZM110.844 10.8672V10.6875C110.844 10.0781 110.932 9.51302 111.109 8.99219C111.286 8.46615 111.542 8.01042 111.875 7.625C112.208 7.23438 112.612 6.93229 113.086 6.71875C113.56 6.5 114.091 6.39062 114.68 6.39062C115.273 6.39062 115.807 6.5 116.281 6.71875C116.76 6.93229 117.167 7.23438 117.5 7.625C117.839 8.01042 118.096 8.46615 118.273 8.99219C118.451 9.51302 118.539 10.0781 118.539 10.6875V10.8672C118.539 11.4766 118.451 12.0417 118.273 12.5625C118.096 13.0833 117.839 13.5391 117.5 13.9297C117.167 14.3151 116.763 14.6172 116.289 14.8359C115.82 15.0495 115.289 15.1562 114.695 15.1562C114.102 15.1562 113.568 15.0495 113.094 14.8359C112.62 14.6172 112.214 14.3151 111.875 13.9297C111.542 13.5391 111.286 13.0833 111.109 12.5625C110.932 12.0417 110.844 11.4766 110.844 10.8672ZM112.289 10.6875V10.8672C112.289 11.2891 112.339 11.6875 112.438 12.0625C112.536 12.4323 112.685 12.7604 112.883 13.0469C113.086 13.3333 113.339 13.5599 113.641 13.7266C113.943 13.888 114.294 13.9688 114.695 13.9688C115.091 13.9688 115.438 13.888 115.734 13.7266C116.036 13.5599 116.286 13.3333 116.484 13.0469C116.682 12.7604 116.831 12.4323 116.93 12.0625C117.034 11.6875 117.086 11.2891 117.086 10.8672V10.6875C117.086 10.2708 117.034 9.8776 116.93 9.50781C116.831 9.13281 116.68 8.80208 116.477 8.51562C116.279 8.22396 116.029 7.99479 115.727 7.82812C115.43 7.66146 115.081 7.57812 114.68 7.57812C114.284 7.57812 113.935 7.66146 113.633 7.82812C113.336 7.99479 113.086 8.22396 112.883 8.51562C112.685 8.80208 112.536 9.13281 112.438 9.50781C112.339 9.8776 112.289 10.2708 112.289 10.6875ZM122.742 11.3203L119.539 6.54688H121.281L123.469 10.0469H125.156L124.945 11.3203H122.742ZM123.531 11.1719L121.078 15H119.25L122.617 10.125L123.531 11.1719ZM125.898 6.54688V15H124.453V6.54688H125.898ZM130.828 6.54688L127.625 11.3203H125.422L125.195 10.0469H126.891L129.078 6.54688H130.828ZM129.281 15L126.82 11.1719L127.75 10.125L131.109 15H129.281ZM134.016 6.54688V15H132.57V6.54688H134.016ZM139.562 6.54688L135.555 11.3906H133.531L133.312 10.125H134.969L137.805 6.54688H139.562ZM138.008 15L134.898 11.1719L135.828 10.125L139.844 15H138.008ZM143.477 14.125L145.828 6.54688H147.375L143.984 16.3047C143.906 16.513 143.802 16.737 143.672 16.9766C143.547 17.2214 143.385 17.4531 143.188 17.6719C142.99 17.8906 142.75 18.0677 142.469 18.2031C142.193 18.3438 141.862 18.4141 141.477 18.4141C141.362 18.4141 141.216 18.3984 141.039 18.3672C140.862 18.3359 140.737 18.3099 140.664 18.2891L140.656 17.1172C140.698 17.1224 140.763 17.1276 140.852 17.1328C140.945 17.1432 141.01 17.1484 141.047 17.1484C141.375 17.1484 141.654 17.1042 141.883 17.0156C142.112 16.9323 142.305 16.7891 142.461 16.5859C142.622 16.388 142.76 16.1146 142.875 15.7656L143.477 14.125ZM141.75 6.54688L143.945 13.1094L144.32 14.6328L143.281 15.1641L140.172 6.54688H141.75ZM156.031 13.9688C156.375 13.9688 156.693 13.8984 156.984 13.7578C157.276 13.6172 157.516 13.4245 157.703 13.1797C157.891 12.9297 157.997 12.6458 158.023 12.3281H159.398C159.372 12.8281 159.203 13.2943 158.891 13.7266C158.583 14.1536 158.18 14.5 157.68 14.7656C157.18 15.026 156.63 15.1562 156.031 15.1562C155.396 15.1562 154.841 15.0443 154.367 14.8203C153.898 14.5964 153.508 14.2891 153.195 13.8984C152.888 13.5078 152.656 13.0599 152.5 12.5547C152.349 12.0443 152.273 11.5052 152.273 10.9375V10.6094C152.273 10.0417 152.349 9.50521 152.5 9C152.656 8.48958 152.888 8.03906 153.195 7.64844C153.508 7.25781 153.898 6.95052 154.367 6.72656C154.841 6.5026 155.396 6.39062 156.031 6.39062C156.693 6.39062 157.271 6.52604 157.766 6.79688C158.26 7.0625 158.648 7.42708 158.93 7.89062C159.216 8.34896 159.372 8.86979 159.398 9.45312H158.023C157.997 9.10417 157.898 8.78906 157.727 8.50781C157.56 8.22656 157.331 8.0026 157.039 7.83594C156.753 7.66406 156.417 7.57812 156.031 7.57812C155.589 7.57812 155.216 7.66667 154.914 7.84375C154.617 8.01562 154.38 8.25 154.203 8.54688C154.031 8.83854 153.906 9.16406 153.828 9.52344C153.755 9.8776 153.719 10.2396 153.719 10.6094V10.9375C153.719 11.3073 153.755 11.6719 153.828 12.0312C153.901 12.3906 154.023 12.7161 154.195 13.0078C154.372 13.2995 154.609 13.5339 154.906 13.7109C155.208 13.8828 155.583 13.9688 156.031 13.9688ZM164.469 6.54688V15H163.016V6.54688H164.469ZM167.305 6.54688V7.71875H160.234V6.54688H167.305ZM173.586 13.5547V9.20312C173.586 8.86979 173.518 8.58073 173.383 8.33594C173.253 8.08594 173.055 7.89323 172.789 7.75781C172.523 7.6224 172.195 7.55469 171.805 7.55469C171.44 7.55469 171.12 7.61719 170.844 7.74219C170.573 7.86719 170.359 8.03125 170.203 8.23438C170.052 8.4375 169.977 8.65625 169.977 8.89062H168.531C168.531 8.58854 168.609 8.28906 168.766 7.99219C168.922 7.69531 169.146 7.42708 169.438 7.1875C169.734 6.94271 170.089 6.75 170.5 6.60938C170.917 6.46354 171.38 6.39062 171.891 6.39062C172.505 6.39062 173.047 6.49479 173.516 6.70312C173.99 6.91146 174.359 7.22656 174.625 7.64844C174.896 8.0651 175.031 8.58854 175.031 9.21875V13.1562C175.031 13.4375 175.055 13.737 175.102 14.0547C175.154 14.3724 175.229 14.6458 175.328 14.875V15H173.82C173.747 14.8333 173.69 14.612 173.648 14.3359C173.607 14.0547 173.586 13.7943 173.586 13.5547ZM173.836 9.875L173.852 10.8906H172.391C171.979 10.8906 171.612 10.9245 171.289 10.9922C170.966 11.0547 170.695 11.151 170.477 11.2812C170.258 11.4115 170.091 11.5755 169.977 11.7734C169.862 11.9661 169.805 12.1927 169.805 12.4531C169.805 12.7188 169.865 12.9609 169.984 13.1797C170.104 13.3984 170.284 13.5729 170.523 13.7031C170.768 13.8281 171.068 13.8906 171.422 13.8906C171.865 13.8906 172.255 13.7969 172.594 13.6094C172.932 13.4219 173.201 13.1927 173.398 12.9219C173.602 12.651 173.711 12.388 173.727 12.1328L174.344 12.8281C174.307 13.0469 174.208 13.2891 174.047 13.5547C173.885 13.8203 173.669 14.0755 173.398 14.3203C173.133 14.5599 172.815 14.7604 172.445 14.9219C172.081 15.0781 171.669 15.1562 171.211 15.1562C170.638 15.1562 170.135 15.0443 169.703 14.8203C169.276 14.5964 168.943 14.2969 168.703 13.9219C168.469 13.5417 168.352 13.1172 168.352 12.6484C168.352 12.1953 168.44 11.7969 168.617 11.4531C168.794 11.1042 169.049 10.8151 169.383 10.5859C169.716 10.3516 170.117 10.1745 170.586 10.0547C171.055 9.9349 171.578 9.875 172.156 9.875H173.836ZM180.625 6.54688V15H179.172V6.54688H180.625ZM183.461 6.54688V7.71875H176.391V6.54688H183.461ZM186.07 9.45312H188.609C189.292 9.45312 189.867 9.57292 190.336 9.8125C190.805 10.0469 191.159 10.3724 191.398 10.7891C191.643 11.2005 191.766 11.6693 191.766 12.1953C191.766 12.5859 191.698 12.9531 191.562 13.2969C191.427 13.6354 191.224 13.9323 190.953 14.1875C190.688 14.4427 190.357 14.6432 189.961 14.7891C189.57 14.9297 189.12 15 188.609 15H185.016V6.54688H186.461V13.8125H188.609C189.026 13.8125 189.359 13.737 189.609 13.5859C189.859 13.4349 190.039 13.2396 190.148 13C190.258 12.7604 190.312 12.5104 190.312 12.25C190.312 11.9948 190.258 11.7448 190.148 11.5C190.039 11.2552 189.859 11.0521 189.609 10.8906C189.359 10.724 189.026 10.6406 188.609 10.6406H186.07V9.45312ZM195.133 12.7109L199.031 6.54688H200.484V15H199.031V8.83594L195.133 15H193.695V6.54688H195.133V12.7109ZM202.742 14.2344C202.742 13.9896 202.818 13.7839 202.969 13.6172C203.125 13.4453 203.349 13.3594 203.641 13.3594C203.932 13.3594 204.154 13.4453 204.305 13.6172C204.461 13.7839 204.539 13.9896 204.539 14.2344C204.539 14.474 204.461 14.6771 204.305 14.8438C204.154 15.0104 203.932 15.0938 203.641 15.0938C203.349 15.0938 203.125 15.0104 202.969 14.8438C202.818 14.6771 202.742 14.474 202.742 14.2344ZM202.75 7.33594C202.75 7.09115 202.826 6.88542 202.977 6.71875C203.133 6.54688 203.357 6.46094 203.648 6.46094C203.94 6.46094 204.161 6.54688 204.312 6.71875C204.469 6.88542 204.547 7.09115 204.547 7.33594C204.547 7.57552 204.469 7.77865 204.312 7.94531C204.161 8.11198 203.94 8.19531 203.648 8.19531C203.357 8.19531 203.133 8.11198 202.977 7.94531C202.826 7.77865 202.75 7.57552 202.75 7.33594Z" fill="black"/>
</g>
<defs>
<filter id="filter0_i_234_583" x="3" y="21" width="107" height="52" filterUnits="userSpaceOnUse" color-interpolation-filters="sRGB">
<feFlood flood-opacity="0" result="BackgroundImageFix"/>
<feBlend mode="normal" in="SourceGraphic" in2="BackgroundImageFix" result="shape"/>
<feColorMatrix in="SourceAlpha" type="matrix" values="0 0 0 0 0 0 0 0 0 0 0 0 0 0 0 0 0 0 127 0" result="hardAlpha"/>
<feOffset dy="2"/>
<feGaussianBlur stdDeviation="1.5"/>
<feComposite in2="hardAlpha" operator="arithmetic" k2="-1" k3="1"/>
<feColorMatrix type="matrix" values="0 0 0 0 0 0 0 0 0 0 0 0 0 0 0 0 0 0 0.25 0"/>
<feBlend mode="normal" in2="shape" result="effect1_innerShadow_234_583"/>
</filter>
<filter id="filter1_d_234_583" x="0.21875" y="1.86719" width="207.328" height="21.5469" filterUnits="userSpaceOnUse" color-interpolation-filters="sRGB">
<feFlood flood-opacity="0" result="BackgroundImageFix"/>
<feColorMatrix in="SourceAlpha" type="matrix" values="0 0 0 0 0 0 0 0 0 0 0 0 0 0 0 0 0 0 127 0" result="hardAlpha"/>
<feOffset dy="2"/>
<feGaussianBlur stdDeviation="1.5"/>
<feComposite in2="hardAlpha" operator="out"/>
<feColorMatrix type="matrix" values="0 0 0 0 0 0 0 0 0 0 0 0 0 0 0 0 0 0 0.25 0"/>
<feBlend mode="normal" in2="BackgroundImageFix" result="effect1_dropShadow_234_583"/>
<feBlend mode="normal" in="SourceGraphic" in2="effect1_dropShadow_234_583" result="shape"/>
</filter>
</defs>
</svg>
