<svg width="26" height="26" viewBox="0 0 26 20" fill="none" xmlns="http://www.w3.org/2000/svg">
<g filter="url(#filter0_d_166_494)">
<path d="M12 15H14V11H18V9H14V5H12V9H8V11H12V15ZM13 20C11.6167 20 10.3167 19.7373 9.1 19.212C7.88333 18.6873 6.825 17.975 5.925 17.075C5.025 16.175 4.31267 15.1167 3.788 13.9C3.26267 12.6833 3 11.3833 3 10C3 8.61667 3.26267 7.31667 3.788 6.1C4.31267 4.88333 5.025 3.825 5.925 2.925C6.825 2.025 7.88333 1.31233 9.1 0.787C10.3167 0.262333 11.6167 0 13 0C14.3833 0 15.6833 0.262333 16.9 0.787C18.1167 1.31233 19.175 2.025 20.075 2.925C20.975 3.825 21.6873 4.88333 22.212 6.1C22.7373 7.31667 23 8.61667 23 10C23 11.3833 22.7373 12.6833 22.212 13.9C21.6873 15.1167 20.975 16.175 20.075 17.075C19.175 17.975 18.1167 18.6873 16.9 19.212C15.6833 19.7373 14.3833 20 13 20ZM13 18C15.2333 18 17.125 17.225 18.675 15.675C20.225 14.125 21 12.2333 21 10C21 7.76667 20.225 5.875 18.675 4.325C17.125 2.775 15.2333 2 13 2C10.7667 2 8.875 2.775 7.325 4.325C5.775 5.875 5 7.76667 5 10C5 12.2333 5.775 14.125 7.325 15.675C8.875 17.225 10.7667 18 13 18Z" fill="white"/>
</g>
<defs>
<filter id="filter0_d_166_494" x="0" y="0" width="26" height="26" filterUnits="userSpaceOnUse" color-interpolation-filters="sRGB">
<feFlood flood-opacity="0" result="BackgroundImageFix"/>
<feColorMatrix in="SourceAlpha" type="matrix" values="0 0 0 0 0 0 0 0 0 0 0 0 0 0 0 0 0 0 127 0" result="hardAlpha"/>
<feOffset dy="3"/>
<feGaussianBlur stdDeviation="1.5"/>
<feComposite in2="hardAlpha" operator="out"/>
<feColorMatrix type="matrix" values="0 0 0 0 0 0 0 0 0 0 0 0 0 0 0 0 0 0 0.25 0"/>
<feBlend mode="normal" in2="BackgroundImageFix" result="effect1_dropShadow_166_494"/>
<feBlend mode="normal" in="SourceGraphic" in2="effect1_dropShadow_166_494" result="shape"/>
</filter>
</defs>
</svg>
