<svg width="18" height="22" viewBox="0 0 18 22" fill="none" xmlns="http://www.w3.org/2000/svg">
<path d="M0.333344 18.5834V16.4167H2.50001V8.83335C2.50001 7.33474 2.9514 6.00296 3.85418 4.83802C4.75695 3.6738 5.93057 2.91113 7.37501 2.55002V1.79169C7.37501 1.3403 7.53318 0.956798 7.84951 0.641187C8.16512 0.324854 8.54862 0.166687 9.00001 0.166687C9.4514 0.166687 9.8349 0.324854 10.1505 0.641187C10.4668 0.956798 10.625 1.3403 10.625 1.79169V2.55002C12.0695 2.91113 13.2431 3.6738 14.1458 4.83802C15.0486 6.00296 15.5 7.33474 15.5 8.83335V16.4167H17.6667V18.5834H0.333344ZM9.00001 21.8334C8.40418 21.8334 7.89429 21.6214 7.47034 21.1974C7.04568 20.7728 6.83334 20.2625 6.83334 19.6667H11.1667C11.1667 20.2625 10.9547 20.7728 10.5308 21.1974C10.1061 21.6214 9.59584 21.8334 9.00001 21.8334ZM4.66668 16.4167H13.3333V8.83335C13.3333 7.64169 12.909 6.62155 12.0604 5.77294C11.2118 4.92433 10.1917 4.50002 9.00001 4.50002C7.80834 4.50002 6.78821 4.92433 5.93959 5.77294C5.09098 6.62155 4.66668 7.64169 4.66668 8.83335V16.4167Z" fill="#1C1B1F"/>
</svg>